<svg width="16" height="16" viewBox="0 0 16 16" fill="none" xmlns="http://www.w3.org/2000/svg">
<path fill-rule="evenodd" clip-rule="evenodd" d="M7.9777 0.866699H8.02253C9.09329 0.866696 9.92725 0.866694 10.5949 0.924502C11.2732 0.983229 11.8235 1.10426 12.3143 1.37229C13.0098 1.75204 13.5814 2.32368 13.9612 3.01914C14.2292 3.51 14.3503 4.06024 14.409 4.73854C14.4668 5.40624 14.4668 6.24021 14.4668 7.311V8.68907C14.4668 9.75985 14.4668 10.5938 14.409 11.2615C14.3503 11.9398 14.2292 12.4901 13.9612 12.9809C13.5814 13.6764 13.0098 14.248 12.3143 14.6278C11.8235 14.8958 11.2732 15.0168 10.5949 15.0756C9.92724 15.1334 9.09327 15.1334 8.02248 15.1334H7.97775C6.90696 15.1334 6.07299 15.1334 5.40529 15.0756C4.72699 15.0168 4.17675 14.8958 3.68588 14.6278C2.99043 14.248 2.41879 13.6764 2.03904 12.9809C1.77101 12.4901 1.64998 11.9398 1.59125 11.2615C1.53344 10.5938 1.53344 9.75988 1.53345 8.68911V7.31095C1.53344 6.24019 1.53344 5.40623 1.59125 4.73854C1.64998 4.06024 1.77101 3.51 2.03904 3.01914C2.41879 2.32368 2.99043 1.75204 3.68588 1.37229C4.17675 1.10426 4.72699 0.983229 5.40529 0.924502C6.07298 0.866694 6.90694 0.866696 7.9777 0.866699ZM5.4858 1.85436C4.86902 1.90776 4.4637 2.01098 4.13318 2.19146C3.59477 2.48546 3.15221 2.92802 2.85821 3.46644C2.67773 3.79695 2.57451 4.20227 2.52111 4.81905C2.46719 5.44179 2.46678 6.23545 2.46678 7.33337V8.6667C2.46678 9.76461 2.46719 10.5583 2.52111 11.181C2.57451 11.7978 2.67773 12.2031 2.85821 12.5336C3.15221 13.072 3.59477 13.5146 4.13318 13.8086C4.4637 13.9891 4.86902 14.0923 5.4858 14.1457C6.10854 14.1996 6.9022 14.2 8.00011 14.2C9.09803 14.2 9.89169 14.1996 10.5144 14.1457C11.1312 14.0923 11.5365 13.9891 11.867 13.8086C12.4055 13.5146 12.848 13.072 13.142 12.5336C13.3225 12.2031 13.4257 11.7978 13.4791 11.181C13.533 10.5583 13.5334 9.76461 13.5334 8.6667V7.33337C13.5334 6.23545 13.533 5.44179 13.4791 4.81905C13.4257 4.20227 13.3225 3.79695 13.142 3.46644C12.848 2.92802 12.4055 2.48546 11.867 2.19146C11.5365 2.01098 11.1312 1.90776 10.5144 1.85436C9.89169 1.80044 9.09803 1.80003 8.00011 1.80003C6.9022 1.80003 6.10854 1.80044 5.4858 1.85436Z" fill="white"/>
<path fill-rule="evenodd" clip-rule="evenodd" d="M10.6667 11.1334C10.6667 11.3912 10.4578 11.6001 10.2001 11.6001L5.13341 11.6001C4.87568 11.6001 4.66675 11.3912 4.66675 11.1334C4.66675 10.8757 4.87568 10.6668 5.13341 10.6668L10.2001 10.6668C10.4578 10.6668 10.6667 10.8757 10.6667 11.1334Z" fill="white"/>
<path fill-rule="evenodd" clip-rule="evenodd" d="M10.6667 8.46668C10.6667 8.72442 10.4578 8.93335 10.2001 8.93335L5.13341 8.93335C4.87568 8.93335 4.66675 8.72442 4.66675 8.46668C4.66675 8.20895 4.87568 8.00002 5.13341 8.00002L10.2001 8.00002C10.4578 8.00002 10.6667 8.20895 10.6667 8.46668Z" fill="white"/>
<path fill-rule="evenodd" clip-rule="evenodd" d="M8 5.80006C8 6.05779 7.79107 6.26672 7.53333 6.26672L5.13333 6.26672C4.8756 6.26672 4.66667 6.05779 4.66667 5.80006C4.66667 5.54232 4.8756 5.33339 5.13333 5.33339L7.53333 5.33339C7.79107 5.33339 8 5.54232 8 5.80006Z" fill="white"/>
</svg>
