<svg width="20" height="20" viewBox="0 0 20 20" fill="none" xmlns="http://www.w3.org/2000/svg">
<path d="M17.5 4.98307C14.725 4.70807 11.9333 4.56641 9.15 4.56641C7.5 4.56641 5.85 4.64974 4.2 4.81641L2.5 4.98307" stroke="#696969" stroke-width="1.5" stroke-linecap="round" stroke-linejoin="round"/>
<path d="M7.08325 4.14199L7.26659 3.05033C7.39992 2.25866 7.49992 1.66699 8.90825 1.66699H11.0916C12.4999 1.66699 12.6083 2.29199 12.7333 3.05866L12.9166 4.14199" stroke="#696969" stroke-width="1.5" stroke-linecap="round" stroke-linejoin="round"/>
<path d="M15.7084 7.61621L15.1667 16.0079C15.0751 17.3162 15.0001 18.3329 12.6751 18.3329H7.32508C5.00008 18.3329 4.92508 17.3162 4.83341 16.0079L4.29175 7.61621" stroke="#696969" stroke-width="1.5" stroke-linecap="round" stroke-linejoin="round"/>
<path d="M8.6084 13.75H11.3834" stroke="#696969" stroke-width="1.5" stroke-linecap="round" stroke-linejoin="round"/>
<path d="M7.91675 10.417H12.0834" stroke="#696969" stroke-width="1.5" stroke-linecap="round" stroke-linejoin="round"/>
</svg>
