<svg width="24" height="24" viewBox="0 0 24 24" fill="none" xmlns="http://www.w3.org/2000/svg">
<path d="M6.95459 6.362C8.46703 5.46328 10.1953 4.99251 11.9546 5C18.2616 5 21.3216 10.683 21.8646 11.808C21.9246 11.931 21.9246 12.069 21.8646 12.193C21.5126 12.921 20.1086 15.555 17.4546 17.324M13.9546 18.8C13.2964 18.9341 12.6263 19.0012 11.9546 19C5.64759 19 2.58759 13.317 2.04459 12.192C2.01525 12.1319 2 12.0659 2 11.999C2 11.9321 2.01525 11.8661 2.04459 11.806C2.26359 11.354 2.88459 10.174 3.95459 8.921M9.95459 9.764C10.5261 9.2531 11.2716 8.98037 12.0379 9.00182C12.8042 9.02326 13.5332 9.33725 14.0753 9.87932C14.6173 10.4214 14.9313 11.1504 14.9528 11.9167C14.9742 12.683 14.7015 13.4285 14.1906 14M2.95459 3L20.9546 21" stroke="#676767" stroke-width="2" stroke-linecap="round" stroke-linejoin="round"/>
</svg>
