<svg width="107" height="107" viewBox="0 0 107 107" fill="none" xmlns="http://www.w3.org/2000/svg">
<circle cx="53.5" cy="53.5" r="53.5" fill="#FFF4F1"/>
<path d="M43.375 42.375H35.625C31.75 42.375 31.75 46.25 31.75 46.25H47.25C47.25 46.25 47.25 42.375 43.375 42.375ZM43.375 50.125H35.625C31.75 50.125 31.75 54 31.75 54H47.25C47.25 54 47.25 50.125 43.375 50.125ZM43.375 57.875H35.625C31.75 57.875 31.75 61.75 31.75 61.75H47.25C47.25 61.75 47.25 57.875 43.375 57.875ZM70.5 42.375H62.75C58.875 42.375 58.875 46.25 58.875 46.25H74.375C74.375 46.25 74.375 42.375 70.5 42.375ZM70.5 50.125H62.75C58.875 50.125 58.875 54 58.875 54H74.375C74.375 54 74.375 50.125 70.5 50.125ZM70.5 57.875H62.75C58.875 57.875 58.875 61.75 58.875 61.75H74.375C74.375 61.75 74.375 57.875 70.5 57.875ZM60.8125 32.6875C56.9375 32.6875 53.0625 36.5625 53.0625 36.5625C53.0625 36.5625 49.1875 32.6875 45.3125 32.6875C35.625 32.6875 24 36.5625 24 36.5625V73.375L51.125 71.4375C51.125 71.4375 51.0474 73.375 53.0247 73.375C55 73.375 55 71.4375 55 71.4375L82.125 73.375V36.5625C82.125 36.5625 70.5 32.6875 60.8125 32.6875ZM51.125 69.5C51.125 69.5 51.1874 65.625 47.25 65.625C35.5626 65.625 27.875 69.5 27.875 69.5V38.5C27.875 38.5 35.625 36.5625 43.375 36.5625C47.25 36.5625 51.125 40.4375 51.125 40.4375V69.5ZM78.25 67.5625C78.25 67.5625 72.377 65.625 58.875 65.625C55.1211 65.625 55 69.5 55 69.5V40.4375C55 40.4375 58.875 36.5625 62.75 36.5625C70.5 36.5625 78.25 40.4375 78.25 40.4375V67.5625Z" fill="#F46F4C"/>
</svg>
