<svg width="24" height="24" viewBox="0 0 24 24" fill="none" xmlns="http://www.w3.org/2000/svg">
<path d="M9.75 12.25C9.75 13.3527 10.6473 14.25 11.75 14.25C12.8527 14.25 13.75 13.3527 13.75 12.25C13.75 11.1473 12.8527 10.25 11.75 10.25C10.6473 10.25 9.75 11.1473 9.75 12.25Z" fill="#7A7A7A"/>
<path d="M9.75 20.25C9.75 21.3527 10.6473 22.25 11.75 22.25C12.8527 22.25 13.75 21.3527 13.75 20.25C13.75 19.1473 12.8527 18.25 11.75 18.25C10.6473 18.25 9.75 19.1473 9.75 20.25Z" fill="#7A7A7A"/>
<path d="M9.75 4.25C9.75 5.35267 10.6473 6.25 11.75 6.25C12.8527 6.25 13.75 5.35267 13.75 4.25C13.75 3.14733 12.8527 2.25 11.75 2.25C10.6473 2.25 9.75 3.14733 9.75 4.25Z" fill="#7A7A7A"/>
</svg>
