<svg width="94" height="94" viewBox="0 0 94 94" fill="none" xmlns="http://www.w3.org/2000/svg">
<g clip-path="url(#clip0_4925_2475)">
<path d="M48.2221 23.1353L58.0155 29.6643V3.40961C54.6098 1.65167 50.8328 0.734375 47.0001 0.734375C43.1674 0.734375 39.3904 1.65167 35.9846 3.40961V29.6643L45.7781 23.1353C46.14 22.894 46.5652 22.7653 47.0001 22.7653C47.435 22.7653 47.8602 22.894 48.2221 23.1353V23.1353Z" fill="#F46F4C"/>
<path d="M62.4217 6.28906V33.7806C62.4213 34.1792 62.3128 34.5701 62.1078 34.912C61.9027 35.2538 61.6089 35.5336 61.2575 35.7216C60.9061 35.9097 60.5102 35.999 60.1121 35.98C59.714 35.9609 59.3285 35.8343 58.9966 35.6136L47.0001 27.6159L35.0036 35.6136C34.6717 35.8343 34.2862 35.9609 33.8881 35.9799C33.49 35.9989 33.0942 35.9097 32.7428 35.7216C32.3914 35.5335 32.0975 35.2537 31.8925 34.9119C31.6875 34.5702 31.5789 34.1792 31.5785 33.7806V6.28906C27.7288 9.46488 24.9535 13.7518 23.6316 18.5641C22.3098 23.3764 22.5059 28.4795 24.1932 33.1762C25.8804 37.8729 28.9766 41.9341 33.0586 44.8051C37.1407 47.6761 42.0095 49.2169 47.0001 49.2169C51.9907 49.2169 56.8595 47.6761 60.9416 44.8051C65.0236 41.9341 68.1198 37.8729 69.807 33.1762C71.4943 28.4795 71.6904 23.3764 70.3686 18.5641C69.0467 13.7518 66.2714 9.46488 62.4217 6.28906V6.28906Z" fill="#F46F4C"/>
<path d="M88.125 22.7641H84.4531V11.7487C84.4531 11.4228 84.3807 11.1009 84.2412 10.8064C84.1018 10.5118 83.8987 10.2519 83.6467 10.0453C83.3947 9.83864 83.0999 9.69051 82.7837 9.61155C82.4675 9.53258 82.1378 9.52475 81.8182 9.58861L74.4744 11.0574C74.1908 11.1141 73.9211 11.2261 73.6807 11.387C73.4403 11.5479 73.234 11.7546 73.0735 11.9953C72.913 12.236 72.8015 12.5059 72.7453 12.7897C72.6892 13.0734 72.6894 13.3655 72.7461 13.6492C72.8028 13.9328 72.9148 14.2025 73.0758 14.4429C73.2367 14.6833 73.4434 14.8896 73.6841 15.0501C73.9247 15.2106 74.1947 15.3221 74.4784 15.3783C74.7622 15.4344 75.0543 15.4342 75.3379 15.3775L80.0467 14.4359V66.4874C60.5584 64.1434 50.6565 73.5745 47 78.2852C43.3431 73.5755 33.4478 64.1483 13.9531 66.4874V14.4358L18.6619 15.3775C18.9456 15.4341 19.2377 15.4344 19.5214 15.3782C19.8052 15.3221 20.0751 15.2106 20.3158 15.0501C20.5564 14.8896 20.7632 14.6833 20.9241 14.4429C21.085 14.2025 21.197 13.9328 21.2537 13.6491C21.3104 13.3655 21.3107 13.0734 21.2545 12.7897C21.1984 12.5059 21.0868 12.236 20.9264 11.9953C20.7659 11.7546 20.5595 11.5479 20.3192 11.387C20.0788 11.2261 19.8091 11.114 19.5254 11.0573L12.1817 9.58859C11.8621 9.52485 11.5324 9.53277 11.2162 9.61178C10.9001 9.69079 10.6054 9.83893 10.3534 10.0455C10.1014 10.2521 9.89838 10.512 9.75892 10.8065C9.61945 11.101 9.54703 11.4228 9.54688 11.7487V22.7641H5.875C4.51212 22.7657 3.20554 23.3079 2.24184 24.2716C1.27814 25.2353 0.736011 26.5419 0.734375 27.9047V91.0599C0.735288 91.516 0.877637 91.9606 1.14181 92.3324C1.40598 92.7042 1.77896 92.9849 2.20936 93.1359C2.63976 93.2869 3.10638 93.3006 3.54493 93.1753C3.98348 93.0499 4.37236 92.7917 4.65798 92.4361C20.934 72.0912 45.0013 83.7134 46.0146 84.2182C46.3206 84.3711 46.658 84.4506 47 84.4506C47.342 84.4506 47.6794 84.3711 47.9854 84.2182C48.2342 84.0949 73.0194 72.0324 89.342 92.4361C89.6277 92.7917 90.0165 93.0499 90.4551 93.1752C90.8936 93.3006 91.3602 93.2868 91.7906 93.1358C92.221 92.9849 92.594 92.7041 92.8582 92.3323C93.1223 91.9605 93.2647 91.516 93.2656 91.0599V27.9047C93.264 26.5419 92.7219 25.2353 91.7582 24.2716C90.7945 23.3079 89.4879 22.7657 88.125 22.7641V22.7641ZM5.14062 85.4309V27.9047C5.14075 27.71 5.21817 27.5233 5.35586 27.3856C5.49355 27.2479 5.68027 27.1705 5.875 27.1704H9.54688V69.029C9.54697 69.3489 9.61673 69.665 9.7513 69.9552C9.88588 70.2455 10.082 70.5029 10.3262 70.7097C10.5703 70.9165 10.8565 71.0677 11.1649 71.1527C11.4733 71.2377 11.7966 71.2545 12.1122 71.202C26.7333 68.7674 35.5743 73.435 40.3506 77.6349C31.6597 75.4347 17.1202 74.233 5.14062 85.4309V85.4309ZM88.8594 85.4309C76.8798 74.2339 62.3415 75.4348 53.6509 77.6345C58.4286 73.4344 67.2713 68.7657 81.8878 71.2019C82.2034 71.2544 82.5266 71.2374 82.835 71.1524C83.1434 71.0674 83.4295 70.9162 83.6736 70.7094C83.9177 70.5027 84.1139 70.2453 84.2485 69.9551C84.3831 69.6649 84.4529 69.3489 84.4531 69.029V27.1704H88.125C88.3197 27.1705 88.5064 27.2479 88.6441 27.3856C88.7818 27.5233 88.8592 27.71 88.8594 27.9047V85.4309Z" fill="#F4D6CE"/>
<path d="M51.8751 69.7807C59.6044 61.4981 75.0534 62.3981 74.9064 62.4306C75.4871 62.4305 76.0443 62.2012 76.4568 61.7925C76.8693 61.3838 77.1037 60.8288 77.1091 60.2481C77.1145 59.6674 76.8904 59.1081 76.4855 58.6918C76.0807 58.2755 75.5279 58.0359 74.9473 58.0251C59.4245 57.6995 51.8199 63.3822 48.6537 66.7744C48.4563 66.9859 48.3025 67.2342 48.2011 67.5052C48.0997 67.7761 48.0526 68.0644 48.0626 68.3536C48.0726 68.6427 48.1394 68.9271 48.2593 69.1904C48.3792 69.4537 48.5498 69.6908 48.7613 69.8882C48.9728 70.0856 49.2211 70.2394 49.4921 70.3409C49.7631 70.4423 50.0513 70.4893 50.3405 70.4794C50.6296 70.4694 50.914 70.4025 51.1773 70.2826C51.4406 70.1628 51.6778 69.9922 51.8752 69.7807H51.8751Z" fill="#F4D6CE"/>
<path d="M51.8751 59.4885C59.6092 51.2009 75.0533 52.106 74.9064 52.1384C75.487 52.1381 76.044 51.9087 76.4563 51.5C76.8686 51.0913 77.103 50.5364 77.1083 49.9559C77.1137 49.3754 76.8897 48.8162 76.485 48.3999C76.0804 47.9836 75.5277 47.7439 74.9473 47.7329C59.4482 47.4102 51.8213 53.0893 48.6537 56.4822C48.4563 56.6937 48.3025 56.942 48.2011 57.213C48.0997 57.4839 48.0526 57.7722 48.0626 58.0613C48.0726 58.3505 48.1394 58.6348 48.2593 58.8982C48.3792 59.1615 48.5497 59.3986 48.7613 59.596C48.9728 59.7934 49.2211 59.9472 49.4921 60.0486C49.763 60.15 50.0513 60.1971 50.3405 60.1871C50.6296 60.1771 50.9139 60.1103 51.1773 59.9904C51.4406 59.8705 51.6777 59.7 51.8751 59.4885V59.4885Z" fill="#F4D6CE"/>
<path d="M19.0525 58.0255C18.4719 58.0364 17.9191 58.276 17.5143 58.6923C17.1094 59.1086 16.8853 59.6679 16.8907 60.2485C16.8961 60.8292 17.1305 61.3842 17.543 61.7929C17.9555 62.2016 18.5127 62.431 19.0934 62.431C19.9313 62.6159 34.0855 61.1666 42.1247 69.7811C42.3221 69.9926 42.5592 70.1632 42.8225 70.2831C43.0859 70.4029 43.3702 70.4698 43.6594 70.4798C43.9485 70.4897 44.2368 70.4427 44.5077 70.3413C44.7787 70.2398 45.027 70.086 45.2386 69.8886C45.4501 69.6912 45.6206 69.4541 45.7405 69.1908C45.8604 68.9275 45.9272 68.6431 45.9372 68.354C45.9472 68.0648 45.9001 67.7765 45.7987 67.5056C45.6973 67.2346 45.5435 66.9863 45.3461 66.7748C42.1806 63.3827 34.6097 57.7071 19.0525 58.0255V58.0255Z" fill="#F4D6CE"/>
<path d="M16.8918 49.9767C16.9026 50.5535 17.1392 51.1031 17.5509 51.5073C17.9626 51.9115 18.5165 52.138 19.0934 52.1382C19.841 52.3031 34.1005 50.8921 42.1247 59.4883C42.3219 59.7006 42.5591 59.8719 42.8226 59.9924C43.0861 60.113 43.3707 60.1803 43.6603 60.1907C43.9499 60.201 44.2387 60.1541 44.5101 60.0527C44.7815 59.9513 45.0303 59.7973 45.2421 59.5996C45.454 59.4019 45.6247 59.1644 45.7446 58.9006C45.8645 58.6368 45.9312 58.352 45.9409 58.0624C45.9505 57.7728 45.903 57.4841 45.8009 57.2129C45.6989 56.9418 45.5443 56.6934 45.3461 56.482C42.1792 53.0892 34.5874 47.3878 19.0525 47.7327C18.7633 47.7381 18.4779 47.8004 18.2128 47.9161C17.9476 48.0318 17.7078 48.1986 17.5072 48.407C17.3065 48.6153 17.1489 48.8612 17.0433 49.1306C16.9377 49.3999 16.8862 49.6874 16.8918 49.9767V49.9767Z" fill="#F4D6CE"/>
</g>
<defs>
<clipPath id="clip0_4925_2475">
<rect width="94" height="94" fill="white"/>
</clipPath>
</defs>
</svg>
