<svg width="94" height="94" viewBox="0 0 94 94" fill="none" xmlns="http://www.w3.org/2000/svg">
<path d="M73.4375 76.375H20.5625C19.9782 76.375 19.4178 76.6071 19.0047 77.0203C18.5915 77.4334 18.3594 77.9938 18.3594 78.5781C18.3594 79.1624 18.5915 79.7228 19.0047 80.136C19.4178 80.5491 19.9782 80.7812 20.5625 80.7812H36.2062C36.7118 83.2714 38.0628 85.5102 40.0302 87.1183C41.9976 88.7263 44.4605 89.6048 47.0015 89.6048C49.5425 89.6048 52.0053 88.7263 53.9727 87.1183C55.9401 85.5102 57.2911 83.2714 57.7968 80.7812H73.4375C74.0218 80.7812 74.5822 80.5491 74.9953 80.136C75.4085 79.7228 75.6406 79.1624 75.6406 78.5781C75.6406 77.9938 75.4085 77.4334 74.9953 77.0203C74.5822 76.6071 74.0218 76.375 73.4375 76.375ZM47 85.1875C45.6376 85.1831 44.3099 84.7573 43.1991 83.9684C42.0884 83.1795 41.2489 82.0662 40.796 80.7812H53.204C52.7511 82.0662 51.9116 83.1795 50.8009 83.9684C49.6901 84.7573 48.3624 85.1831 47 85.1875Z" fill="#F4D6CE"/>
<path d="M63.967 4.56029C63.4273 4.36331 62.832 4.38496 62.308 4.62062C61.784 4.85628 61.3728 5.28731 61.1621 5.82181C60.9514 6.3563 60.9578 6.95197 61.1799 7.48181C61.4021 8.01166 61.8225 8.43375 62.3514 8.6581C70.1808 11.7161 76.9024 17.0705 81.6332 24.0182C86.3641 30.9659 88.8831 39.1819 88.8594 47.5873C88.8594 48.1716 89.0915 48.732 89.5047 49.1452C89.9178 49.5583 90.4782 49.7904 91.0625 49.7904C91.6468 49.7904 92.2072 49.5583 92.6204 49.1452C93.0335 48.732 93.2656 48.1716 93.2656 47.5873C93.2923 38.297 90.5082 29.2159 85.2793 21.5368C80.0503 13.8577 72.6209 7.93972 63.967 4.56029Z" fill="#F4D6CE"/>
<path d="M64.2357 16.9259C63.9832 16.775 63.703 16.6763 63.4117 16.6355C63.1204 16.5948 62.8239 16.6127 62.5396 16.6884C62.2554 16.764 61.9891 16.8958 61.7566 17.076C61.5241 17.2562 61.3301 17.4811 61.1859 17.7375C61.0417 17.9939 60.9503 18.2765 60.9171 18.5688C60.884 18.8611 60.9096 19.157 60.9927 19.4392C61.0757 19.7214 61.2144 19.9841 61.4006 20.2118C61.5867 20.4396 61.8166 20.6277 62.0767 20.7652C66.8519 23.4498 70.8281 27.355 73.5985 32.081C76.3689 36.807 77.8339 42.1842 77.8437 47.6624C77.8437 48.2467 78.0758 48.8071 78.489 49.2202C78.9022 49.6334 79.4625 49.8655 80.0468 49.8655C80.6311 49.8655 81.1915 49.6334 81.6047 49.2202C82.0178 48.8071 82.25 48.2467 82.25 47.6624C82.2396 41.4025 80.5661 35.2578 77.4008 29.8572C74.2356 24.4565 69.6922 19.9938 64.2357 16.9259Z" fill="#F4D6CE"/>
<path d="M31.6544 8.66591C32.1833 8.44156 32.6037 8.01947 32.8259 7.48963C33.048 6.95978 33.0544 6.36411 32.8437 5.82962C32.633 5.29512 32.2218 4.8641 31.6978 4.62843C31.1738 4.39277 30.5785 4.37112 30.0388 4.5681C21.3851 7.94632 13.9554 13.8628 8.72541 21.5405C3.49546 29.2181 0.709807 38.2981 0.734291 47.5878C0.734291 48.1721 0.966405 48.7325 1.37957 49.1456C1.79274 49.5588 2.35311 49.7909 2.93742 49.7909C3.52172 49.7909 4.08209 49.5588 4.49526 49.1456C4.90843 48.7325 5.14054 48.1721 5.14054 47.5878C5.11877 39.1829 7.63932 30.968 12.3712 24.0217C17.1031 17.0754 23.825 11.7225 31.6544 8.66591Z" fill="#F4D6CE"/>
<path d="M31.9233 20.7656C32.4164 20.4711 32.7751 19.9957 32.9228 19.4406C33.0705 18.8856 32.9956 18.2948 32.714 17.7941C32.4325 17.2935 31.9666 16.9226 31.4156 16.7605C30.8646 16.5984 30.272 16.6578 29.7642 16.9262C24.3077 19.9942 19.7644 24.4569 16.5991 29.8576C13.4339 35.2582 11.7604 41.4029 11.75 47.6628C11.75 48.2471 11.9821 48.8075 12.3953 49.2206C12.8084 49.6338 13.3688 49.8659 13.9531 49.8659C14.5374 49.8659 15.0978 49.6338 15.511 49.2206C15.9241 48.8075 16.1562 48.2471 16.1562 47.6628C16.1661 42.1846 17.6311 36.8074 20.4015 32.0814C23.1718 27.3554 27.1481 23.4502 31.9233 20.7656Z" fill="#F4D6CE"/>
<path d="M47 23.4277C40.5749 23.4351 34.4151 25.9907 29.8719 30.534C25.3286 35.0772 22.773 41.237 22.7656 47.6621V69.6934C22.7656 70.2777 22.9977 70.838 23.4109 71.2512C23.8241 71.6644 24.3844 71.8965 24.9688 71.8965H69.0312C69.6156 71.8965 70.1759 71.6644 70.5891 71.2512C71.0023 70.838 71.2344 70.2777 71.2344 69.6934V47.6621C71.227 41.237 68.6714 35.0772 64.1281 30.534C59.5849 25.9907 53.4251 23.4351 47 23.4277ZM61.5406 37.7055C61.1275 38.1185 60.5672 38.3505 59.983 38.3505C59.3988 38.3505 58.8386 38.1185 58.4254 37.7055C55.3933 34.68 51.2848 32.9809 47.0015 32.9809C42.7181 32.9809 38.6097 34.68 35.5775 37.7055C35.373 37.9102 35.1301 38.0726 34.8628 38.1835C34.5955 38.2944 34.3089 38.3515 34.0195 38.3517C33.7301 38.3518 33.4435 38.2949 33.176 38.1843C32.9086 38.0737 32.6656 37.9115 32.4608 37.7069C32.0473 37.2938 31.8149 36.7334 31.8146 36.1489C31.8145 35.8595 31.8714 35.5729 31.982 35.3054C32.0926 35.038 32.2548 34.795 32.4594 34.5902C36.3183 30.7386 41.5478 28.5754 47 28.5754C52.4522 28.5754 57.6817 30.7386 61.5406 34.5902C61.9536 35.0034 62.1857 35.5637 62.1857 36.1478C62.1857 36.732 61.9536 37.2923 61.5406 37.7055Z" fill="#F46F4C"/>
</svg>
