<svg width="112" height="112" viewBox="0 0 112 112" fill="none" xmlns="http://www.w3.org/2000/svg">
<g clip-path="url(#clip0_6221_6188)">
<path d="M73.9375 80.0625C76.3537 80.0625 78.3125 78.1037 78.3125 75.6875C78.3125 73.2712 76.3537 71.3125 73.9375 71.3125C71.5212 71.3125 69.5625 73.2712 69.5625 75.6875C69.5625 78.1037 71.5212 80.0625 73.9375 80.0625Z" fill="#F46F4C"/>
<path d="M52.0623 103.25H17.4999C12.6752 103.25 8.74996 99.3249 8.74996 94.5001V58.6253C8.74996 53.8005 12.6752 49.8753 17.4999 49.8753H80.4997C85.3244 49.8753 89.2496 53.8005 89.2496 58.6253V67.3752C89.2496 69.7915 91.2083 71.7502 93.6246 71.7502C96.0409 71.7502 97.9996 69.7915 97.9996 67.3752V58.6253C97.9996 48.9758 90.1491 41.1253 80.4997 41.1253H75.2416V25.6961C75.2416 11.5275 63.4659 0.000488281 48.9917 0.000488281C34.5175 0.000488281 22.7418 11.5275 22.7418 25.6961V41.1253H17.4999C7.85047 41.1253 0 48.9758 0 58.6253V94.5001C0 104.15 7.85047 112 17.4999 112H52.0623C54.4786 112 56.4373 110.041 56.4373 107.625C56.4373 105.209 54.4786 103.25 52.0623 103.25ZM31.4918 25.6961C31.4918 16.3522 39.3422 8.75045 48.9917 8.75045C58.6412 8.75045 66.4916 16.3522 66.4916 25.6961V41.1253H31.4918V25.6961Z" fill="#F4D6CE"/>
<path d="M110.171 71.2551C108.206 69.8484 105.473 70.301 104.067 72.2658L82.5022 102.388C81.9134 103.07 81.1753 103.218 80.7798 103.244C80.3743 103.271 79.5933 103.22 78.9058 102.575L64.9697 88.9747C63.2403 87.2868 60.4705 87.3212 58.7831 89.0502C57.0954 90.7794 57.1291 93.5492 58.8585 95.2368L72.8191 108.861C72.8322 108.873 72.8451 108.886 72.8585 108.899C74.9512 110.891 77.7449 112 80.6193 112C80.8662 112 81.1138 111.991 81.3615 111.975C84.4926 111.766 87.4162 110.243 89.3821 107.797C89.4329 107.734 89.4819 107.669 89.5294 107.603L111.181 77.3591C112.588 75.3945 112.135 72.6615 110.171 71.2551Z" fill="#F46F4C"/>
<path d="M57.3125 80.0625C59.7287 80.0625 61.6875 78.1037 61.6875 75.6875C61.6875 73.2712 59.7287 71.3125 57.3125 71.3125C54.8962 71.3125 52.9375 73.2712 52.9375 75.6875C52.9375 78.1037 54.8962 80.0625 57.3125 80.0625Z" fill="#F46F4C"/>
<path d="M24.5 80.0625C26.9162 80.0625 28.875 78.1037 28.875 75.6875C28.875 73.2712 26.9162 71.3125 24.5 71.3125C22.0837 71.3125 20.125 73.2712 20.125 75.6875C20.125 78.1037 22.0837 80.0625 24.5 80.0625Z" fill="#F46F4C"/>
<path d="M40.9062 80.0625C43.3225 80.0625 45.2812 78.1037 45.2812 75.6875C45.2812 73.2712 43.3225 71.3125 40.9062 71.3125C38.49 71.3125 36.5312 73.2712 36.5312 75.6875C36.5312 78.1037 38.49 80.0625 40.9062 80.0625Z" fill="#F46F4C"/>
</g>
<defs>
<clipPath id="clip0_6221_6188">
<rect width="112" height="112" fill="white"/>
</clipPath>
</defs>
</svg>
