<svg width="34" height="44" viewBox="0 0 34 44" fill="none" xmlns="http://www.w3.org/2000/svg">
<path fill-rule="evenodd" clip-rule="evenodd" d="M6.27499 0H20.9856L33.4534 12.9955V38.2719C33.4534 41.4383 30.8917 44 27.7362 44H6.27499C3.10859 44 0.546875 41.4383 0.546875 38.2719V5.72812C0.546819 2.56171 3.10853 0 6.27499 0V0Z" fill="#E5252A"/>
<path opacity="0.302" fill-rule="evenodd" clip-rule="evenodd" d="M20.9746 0V12.8966H33.4534L20.9746 0Z" fill="white"/>
<path d="M6.9126 32.83V24.793H10.3319C11.1785 24.793 11.8492 25.0238 12.3549 25.4966C12.8606 25.9584 13.1135 26.5851 13.1135 27.3657C13.1135 28.1463 12.8606 28.773 12.3549 29.2348C11.8492 29.7075 11.1785 29.9384 10.3319 29.9384H8.96857V32.83H6.9126ZM8.96857 28.1903H10.101C10.4088 28.1903 10.6507 28.1243 10.8157 27.9704C10.9806 27.8275 11.0686 27.6296 11.0686 27.3657C11.0686 27.1019 10.9806 26.904 10.8157 26.761C10.6508 26.6071 10.4089 26.5412 10.101 26.5412H8.96857V28.1903ZM13.9601 32.83V24.793H16.8076C17.3684 24.793 17.8961 24.8699 18.3908 25.0349C18.8856 25.1997 19.3364 25.4307 19.7322 25.7495C20.128 26.0573 20.4468 26.4751 20.6777 27.0029C20.8976 27.5306 21.0185 28.1353 21.0185 28.817C21.0185 29.4876 20.8976 30.0923 20.6777 30.62C20.4468 31.1478 20.128 31.5656 19.7322 31.8734C19.3363 32.1922 18.8856 32.4231 18.3908 32.5881C17.8961 32.753 17.3684 32.83 16.8076 32.83H13.9601ZM15.9721 31.0819H16.5658C16.8846 31.0819 17.1815 31.0489 17.4563 30.9719C17.7202 30.895 17.9731 30.774 18.2149 30.6091C18.4458 30.4442 18.6327 30.2133 18.7647 29.9054C18.8966 29.5976 18.9626 29.2348 18.9626 28.817C18.9626 28.3882 18.8966 28.0254 18.7647 27.7175C18.6327 27.4097 18.4458 27.1788 18.2149 27.0139C17.9731 26.849 17.7202 26.728 17.4563 26.6511C17.1815 26.5741 16.8846 26.5411 16.5658 26.5411H15.9721V31.0819ZM22.052 32.83V24.793H27.7692V26.5411H24.108V27.8274H27.0325V29.5646H24.108V32.83H22.052Z" fill="white"/>
</svg>
