<svg width="16" height="16" viewBox="0 0 16 16" fill="none" xmlns="http://www.w3.org/2000/svg">
<path d="M14.8751 14C14.7101 14 14.5549 13.9124 14.473 13.7654L14.4601 13.7426C13.0894 11.312 10.4775 9.8 7.64441 9.8H6.77786V12.35C6.77786 12.5306 6.66725 12.6938 6.49797 12.7646C6.32991 12.8342 6.13191 12.7994 6.00053 12.6728L0.806081 7.72281C0.716859 7.63821 0.666748 7.52181 0.666748 7.40001C0.666748 7.27821 0.716859 7.16181 0.806081 7.07721L6.00053 2.12721C6.13253 2.00121 6.32991 1.96521 6.49797 2.03541C6.66725 2.10621 6.77786 2.26941 6.77786 2.45001V5.00121C11.5097 5.08161 15.3334 8.8856 15.3334 13.55C15.3334 13.7558 15.1916 13.9352 14.9887 13.9862C14.9509 13.9958 14.913 14 14.8751 14ZM6.31953 8.9H7.64441C10.1964 8.9 12.5877 9.9974 14.2224 11.8466C13.4316 8.4452 10.3254 5.90001 6.62508 5.90001H6.31953C6.06653 5.90001 5.86119 5.69841 5.86119 5.45001V3.51381L1.78325 7.40001L5.86119 11.2862V9.35C5.86119 9.1016 6.06653 8.9 6.31953 8.9V8.9Z" fill="white"/>
</svg>
